<svg width="32" height="32" viewBox="0 0 32 32" fill="none" xmlns="http://www.w3.org/2000/svg">
<path d="M16 32C7.17731 32 0 24.8227 0 16C0 7.17731 7.17731 0 16 0C24.8227 0 32 7.17731 32 16C32 24.8227 24.8227 32 16 32ZM20.9427 15.0573L14.276 8.39069C14.016 8.13069 13.6747 8 13.3333 8C12.992 8 12.6506 8.13069 12.3906 8.39069C11.8693 8.912 11.8693 9.75469 12.3906 10.276L18.1147 16L12.3907 21.724C11.8694 22.2453 11.8694 23.088 12.3907 23.6093C12.912 24.1306 13.7547 24.1306 14.276 23.6093L20.9427 16.9426C21.464 16.4213 21.464 15.5787 20.9427 15.0573Z" fill="black"/>
</svg>
