<svg width="118" height="118" viewBox="0 0 118 118" fill="none" xmlns="http://www.w3.org/2000/svg">
<path fill-rule="evenodd" clip-rule="evenodd" d="M117.667 96.3333C117.667 108.115 108.115 117.667 96.3333 117.667H21.6666C9.88457 117.667 0.333313 108.115 0.333313 96.3333V21.6666C0.333313 9.88457 9.88457 0.333313 21.6666 0.333313H96.3333C108.115 0.333313 117.667 9.88457 117.667 21.6666V96.3333ZM96.3333 107H21.6666C15.7756 107 11 102.225 11 96.3333V21.6666C11 15.7756 15.7756 11 21.6666 11H96.3333C102.225 11 107 15.7756 107 21.6666V96.3333C107 102.225 102.225 107 96.3333 107Z" fill="white"/>
<circle cx="58.5" cy="59.5" r="19.5" fill="white"/>
</svg>
