<?xml version="1.0" ?>
<!-- Uploaded to: SVG Repo, www.svgrepo.com, Generator: SVG Repo Mixer Tools -->
<svg width="800px" height="800px" viewBox="0 0 32 32" xmlns="http://www.w3.org/2000/svg">
<defs>
<style>.cls-1{fill:#8c9eff;}.cls-2{fill:#5f7cf9;}</style>
</defs>
<title/>
<g data-name="Play Button" id="Play_Button">
<path class="cls-1" d="M22.58,13.41,11.52,6.91A3,3,0,0,0,7,9.5v13a3,3,0,0,0,1.51,2.61,3.08,3.08,0,0,0,1.49.4,3,3,0,0,0,1.52-.42l11.06-6.5a3,3,0,0,0,0-5.18Z"/>
<path class="cls-2" d="M7,16v6.5a3,3,0,0,0,1.51,2.61,3.08,3.08,0,0,0,1.49.4,3,3,0,0,0,1.52-.42l11.06-6.5A3,3,0,0,0,24.06,16Z"/>
</g>
</svg>