<svg width="32" height="32" viewBox="0 0 32 32" fill="none" xmlns="http://www.w3.org/2000/svg">
<g clip-path="url(#clip0_13_214)">
<path d="M16 32C24.8227 32 32 24.8227 32 16C32 7.17731 24.8227 0 16 0C7.17731 0 0 7.17731 0 16C0 24.8227 7.17731 32 16 32ZM11.0573 15.0573L17.724 8.39069C17.984 8.13069 18.3253 8 18.6667 8C19.008 8 19.3494 8.13069 19.6094 8.39069C20.1307 8.912 20.1307 9.75469 19.6094 10.276L13.8853 16L19.6093 21.724C20.1306 22.2453 20.1306 23.088 19.6093 23.6093C19.088 24.1306 18.2453 24.1306 17.724 23.6093L11.0573 16.9426C10.536 16.4213 10.536 15.5787 11.0573 15.0573Z" fill="black"/>
</g>
<defs>
<clipPath id="clip0_13_214">
<rect width="32" height="32" fill="white" transform="matrix(-1 0 0 -1 32 32)"/>
</clipPath>
</defs>
</svg>
